%TF.GenerationSoftware,KiCad,Pcbnew,8.0.1*%
%TF.CreationDate,2024-09-21T06:00:00+02:00*%
%TF.ProjectId,PMW3360,504d5733-3336-4302-9e6b-696361645f70,rev?*%
%TF.SameCoordinates,Original*%
%TF.FileFunction,Legend,Bot*%
%TF.FilePolarity,Positive*%
%FSLAX46Y46*%
G04 Gerber Fmt 4.6, Leading zero omitted, Abs format (unit mm)*
G04 Created by KiCad (PCBNEW 8.0.1) date 2024-09-21 06:00:00*
%MOMM*%
%LPD*%
G01*
G04 APERTURE LIST*
G04 Aperture macros list*
%AMRoundRect*
0 Rectangle with rounded corners*
0 $1 Rounding radius*
0 $2 $3 $4 $5 $6 $7 $8 $9 X,Y pos of 4 corners*
0 Add a 4 corners polygon primitive as box body*
4,1,4,$2,$3,$4,$5,$6,$7,$8,$9,$2,$3,0*
0 Add four circle primitives for the rounded corners*
1,1,$1+$1,$2,$3*
1,1,$1+$1,$4,$5*
1,1,$1+$1,$6,$7*
1,1,$1+$1,$8,$9*
0 Add four rect primitives between the rounded corners*
20,1,$1+$1,$2,$3,$4,$5,0*
20,1,$1+$1,$4,$5,$6,$7,0*
20,1,$1+$1,$6,$7,$8,$9,0*
20,1,$1+$1,$8,$9,$2,$3,0*%
G04 Aperture macros list end*
%ADD10C,0.250000*%
%ADD11C,3.800000*%
%ADD12RoundRect,0.102000X-0.654000X-0.654000X0.654000X-0.654000X0.654000X0.654000X-0.654000X0.654000X0*%
%ADD13C,1.512000*%
%ADD14R,1.800000X1.800000*%
%ADD15C,1.800000*%
%ADD16O,1.700000X1.700000*%
%ADD17R,1.700000X1.700000*%
G04 APERTURE END LIST*
D10*
X139144647Y-83190476D02*
X138144647Y-83190476D01*
X138144647Y-83190476D02*
X138144647Y-83571428D01*
X138144647Y-83571428D02*
X138192266Y-83666666D01*
X138192266Y-83666666D02*
X138239885Y-83714285D01*
X138239885Y-83714285D02*
X138335123Y-83761904D01*
X138335123Y-83761904D02*
X138477980Y-83761904D01*
X138477980Y-83761904D02*
X138573218Y-83714285D01*
X138573218Y-83714285D02*
X138620837Y-83666666D01*
X138620837Y-83666666D02*
X138668456Y-83571428D01*
X138668456Y-83571428D02*
X138668456Y-83190476D01*
X139144647Y-84190476D02*
X138144647Y-84190476D01*
X138144647Y-84190476D02*
X138858932Y-84523809D01*
X138858932Y-84523809D02*
X138144647Y-84857142D01*
X138144647Y-84857142D02*
X139144647Y-84857142D01*
X138144647Y-85238095D02*
X139144647Y-85476190D01*
X139144647Y-85476190D02*
X138430361Y-85666666D01*
X138430361Y-85666666D02*
X139144647Y-85857142D01*
X139144647Y-85857142D02*
X138144647Y-86095238D01*
X138144647Y-86380952D02*
X138144647Y-86999999D01*
X138144647Y-86999999D02*
X138525599Y-86666666D01*
X138525599Y-86666666D02*
X138525599Y-86809523D01*
X138525599Y-86809523D02*
X138573218Y-86904761D01*
X138573218Y-86904761D02*
X138620837Y-86952380D01*
X138620837Y-86952380D02*
X138716075Y-86999999D01*
X138716075Y-86999999D02*
X138954170Y-86999999D01*
X138954170Y-86999999D02*
X139049408Y-86952380D01*
X139049408Y-86952380D02*
X139097028Y-86904761D01*
X139097028Y-86904761D02*
X139144647Y-86809523D01*
X139144647Y-86809523D02*
X139144647Y-86523809D01*
X139144647Y-86523809D02*
X139097028Y-86428571D01*
X139097028Y-86428571D02*
X139049408Y-86380952D01*
X138144647Y-87333333D02*
X138144647Y-87952380D01*
X138144647Y-87952380D02*
X138525599Y-87619047D01*
X138525599Y-87619047D02*
X138525599Y-87761904D01*
X138525599Y-87761904D02*
X138573218Y-87857142D01*
X138573218Y-87857142D02*
X138620837Y-87904761D01*
X138620837Y-87904761D02*
X138716075Y-87952380D01*
X138716075Y-87952380D02*
X138954170Y-87952380D01*
X138954170Y-87952380D02*
X139049408Y-87904761D01*
X139049408Y-87904761D02*
X139097028Y-87857142D01*
X139097028Y-87857142D02*
X139144647Y-87761904D01*
X139144647Y-87761904D02*
X139144647Y-87476190D01*
X139144647Y-87476190D02*
X139097028Y-87380952D01*
X139097028Y-87380952D02*
X139049408Y-87333333D01*
X138239885Y-88333333D02*
X138192266Y-88380952D01*
X138192266Y-88380952D02*
X138144647Y-88476190D01*
X138144647Y-88476190D02*
X138144647Y-88714285D01*
X138144647Y-88714285D02*
X138192266Y-88809523D01*
X138192266Y-88809523D02*
X138239885Y-88857142D01*
X138239885Y-88857142D02*
X138335123Y-88904761D01*
X138335123Y-88904761D02*
X138430361Y-88904761D01*
X138430361Y-88904761D02*
X138573218Y-88857142D01*
X138573218Y-88857142D02*
X139144647Y-88285714D01*
X139144647Y-88285714D02*
X139144647Y-88904761D01*
X138144647Y-89809523D02*
X138144647Y-89333333D01*
X138144647Y-89333333D02*
X138620837Y-89285714D01*
X138620837Y-89285714D02*
X138573218Y-89333333D01*
X138573218Y-89333333D02*
X138525599Y-89428571D01*
X138525599Y-89428571D02*
X138525599Y-89666666D01*
X138525599Y-89666666D02*
X138573218Y-89761904D01*
X138573218Y-89761904D02*
X138620837Y-89809523D01*
X138620837Y-89809523D02*
X138716075Y-89857142D01*
X138716075Y-89857142D02*
X138954170Y-89857142D01*
X138954170Y-89857142D02*
X139049408Y-89809523D01*
X139049408Y-89809523D02*
X139097028Y-89761904D01*
X139097028Y-89761904D02*
X139144647Y-89666666D01*
X139144647Y-89666666D02*
X139144647Y-89428571D01*
X139144647Y-89428571D02*
X139097028Y-89333333D01*
X139097028Y-89333333D02*
X139049408Y-89285714D01*
X139144647Y-90285714D02*
X138144647Y-90285714D01*
X138144647Y-90285714D02*
X138144647Y-90523809D01*
X138144647Y-90523809D02*
X138192266Y-90666666D01*
X138192266Y-90666666D02*
X138287504Y-90761904D01*
X138287504Y-90761904D02*
X138382742Y-90809523D01*
X138382742Y-90809523D02*
X138573218Y-90857142D01*
X138573218Y-90857142D02*
X138716075Y-90857142D01*
X138716075Y-90857142D02*
X138906551Y-90809523D01*
X138906551Y-90809523D02*
X139001789Y-90761904D01*
X139001789Y-90761904D02*
X139097028Y-90666666D01*
X139097028Y-90666666D02*
X139144647Y-90523809D01*
X139144647Y-90523809D02*
X139144647Y-90285714D01*
X138620837Y-91619047D02*
X138668456Y-91761904D01*
X138668456Y-91761904D02*
X138716075Y-91809523D01*
X138716075Y-91809523D02*
X138811313Y-91857142D01*
X138811313Y-91857142D02*
X138954170Y-91857142D01*
X138954170Y-91857142D02*
X139049408Y-91809523D01*
X139049408Y-91809523D02*
X139097028Y-91761904D01*
X139097028Y-91761904D02*
X139144647Y-91666666D01*
X139144647Y-91666666D02*
X139144647Y-91285714D01*
X139144647Y-91285714D02*
X138144647Y-91285714D01*
X138144647Y-91285714D02*
X138144647Y-91619047D01*
X138144647Y-91619047D02*
X138192266Y-91714285D01*
X138192266Y-91714285D02*
X138239885Y-91761904D01*
X138239885Y-91761904D02*
X138335123Y-91809523D01*
X138335123Y-91809523D02*
X138430361Y-91809523D01*
X138430361Y-91809523D02*
X138525599Y-91761904D01*
X138525599Y-91761904D02*
X138573218Y-91714285D01*
X138573218Y-91714285D02*
X138620837Y-91619047D01*
X138620837Y-91619047D02*
X138620837Y-91285714D01*
X140754591Y-84499999D02*
X139754591Y-84499999D01*
X140135543Y-84499999D02*
X140087924Y-84595237D01*
X140087924Y-84595237D02*
X140087924Y-84785713D01*
X140087924Y-84785713D02*
X140135543Y-84880951D01*
X140135543Y-84880951D02*
X140183162Y-84928570D01*
X140183162Y-84928570D02*
X140278400Y-84976189D01*
X140278400Y-84976189D02*
X140564114Y-84976189D01*
X140564114Y-84976189D02*
X140659352Y-84928570D01*
X140659352Y-84928570D02*
X140706972Y-84880951D01*
X140706972Y-84880951D02*
X140754591Y-84785713D01*
X140754591Y-84785713D02*
X140754591Y-84595237D01*
X140754591Y-84595237D02*
X140706972Y-84499999D01*
X140754591Y-85404761D02*
X140087924Y-85404761D01*
X140278400Y-85404761D02*
X140183162Y-85452380D01*
X140183162Y-85452380D02*
X140135543Y-85499999D01*
X140135543Y-85499999D02*
X140087924Y-85595237D01*
X140087924Y-85595237D02*
X140087924Y-85690475D01*
X140706972Y-86404761D02*
X140754591Y-86309523D01*
X140754591Y-86309523D02*
X140754591Y-86119047D01*
X140754591Y-86119047D02*
X140706972Y-86023809D01*
X140706972Y-86023809D02*
X140611733Y-85976190D01*
X140611733Y-85976190D02*
X140230781Y-85976190D01*
X140230781Y-85976190D02*
X140135543Y-86023809D01*
X140135543Y-86023809D02*
X140087924Y-86119047D01*
X140087924Y-86119047D02*
X140087924Y-86309523D01*
X140087924Y-86309523D02*
X140135543Y-86404761D01*
X140135543Y-86404761D02*
X140230781Y-86452380D01*
X140230781Y-86452380D02*
X140326019Y-86452380D01*
X140326019Y-86452380D02*
X140421257Y-85976190D01*
X140754591Y-87309523D02*
X140230781Y-87309523D01*
X140230781Y-87309523D02*
X140135543Y-87261904D01*
X140135543Y-87261904D02*
X140087924Y-87166666D01*
X140087924Y-87166666D02*
X140087924Y-86976190D01*
X140087924Y-86976190D02*
X140135543Y-86880952D01*
X140706972Y-87309523D02*
X140754591Y-87214285D01*
X140754591Y-87214285D02*
X140754591Y-86976190D01*
X140754591Y-86976190D02*
X140706972Y-86880952D01*
X140706972Y-86880952D02*
X140611733Y-86833333D01*
X140611733Y-86833333D02*
X140516495Y-86833333D01*
X140516495Y-86833333D02*
X140421257Y-86880952D01*
X140421257Y-86880952D02*
X140373638Y-86976190D01*
X140373638Y-86976190D02*
X140373638Y-87214285D01*
X140373638Y-87214285D02*
X140326019Y-87309523D01*
X140754591Y-87785714D02*
X139754591Y-87785714D01*
X140373638Y-87880952D02*
X140754591Y-88166666D01*
X140087924Y-88166666D02*
X140468876Y-87785714D01*
X140754591Y-88738095D02*
X140706972Y-88642857D01*
X140706972Y-88642857D02*
X140659352Y-88595238D01*
X140659352Y-88595238D02*
X140564114Y-88547619D01*
X140564114Y-88547619D02*
X140278400Y-88547619D01*
X140278400Y-88547619D02*
X140183162Y-88595238D01*
X140183162Y-88595238D02*
X140135543Y-88642857D01*
X140135543Y-88642857D02*
X140087924Y-88738095D01*
X140087924Y-88738095D02*
X140087924Y-88880952D01*
X140087924Y-88880952D02*
X140135543Y-88976190D01*
X140135543Y-88976190D02*
X140183162Y-89023809D01*
X140183162Y-89023809D02*
X140278400Y-89071428D01*
X140278400Y-89071428D02*
X140564114Y-89071428D01*
X140564114Y-89071428D02*
X140659352Y-89023809D01*
X140659352Y-89023809D02*
X140706972Y-88976190D01*
X140706972Y-88976190D02*
X140754591Y-88880952D01*
X140754591Y-88880952D02*
X140754591Y-88738095D01*
X140087924Y-89928571D02*
X140754591Y-89928571D01*
X140087924Y-89500000D02*
X140611733Y-89500000D01*
X140611733Y-89500000D02*
X140706972Y-89547619D01*
X140706972Y-89547619D02*
X140754591Y-89642857D01*
X140754591Y-89642857D02*
X140754591Y-89785714D01*
X140754591Y-89785714D02*
X140706972Y-89880952D01*
X140706972Y-89880952D02*
X140659352Y-89928571D01*
X140087924Y-90261905D02*
X140087924Y-90642857D01*
X139754591Y-90404762D02*
X140611733Y-90404762D01*
X140611733Y-90404762D02*
X140706972Y-90452381D01*
X140706972Y-90452381D02*
X140754591Y-90547619D01*
X140754591Y-90547619D02*
X140754591Y-90642857D01*
%LPC*%
D11*
X179000000Y-78000000D03*
D12*
X156000000Y-81125000D03*
D13*
X154000000Y-81125000D03*
X152000000Y-81125000D03*
X150000000Y-81125000D03*
X151000000Y-93725000D03*
X153000000Y-93725000D03*
X155000000Y-93725000D03*
X157000000Y-93725000D03*
D14*
X179475000Y-86225000D03*
D15*
X179475000Y-88765000D03*
D11*
X179000000Y-97000000D03*
X140000000Y-97000000D03*
X140000000Y-78000000D03*
D16*
X160620000Y-97500000D03*
X158080000Y-97500000D03*
X155540000Y-97500000D03*
X153000000Y-97500000D03*
X150460000Y-97500000D03*
D17*
X147920000Y-97500000D03*
%LPD*%
M02*
