%TF.GenerationSoftware,KiCad,Pcbnew,8.0.1*%
%TF.CreationDate,2024-09-21T06:00:00+02:00*%
%TF.ProjectId,PMW3360,504d5733-3336-4302-9e6b-696361645f70,rev?*%
%TF.SameCoordinates,Original*%
%TF.FileFunction,Legend,Top*%
%TF.FilePolarity,Positive*%
%FSLAX46Y46*%
G04 Gerber Fmt 4.6, Leading zero omitted, Abs format (unit mm)*
G04 Created by KiCad (PCBNEW 8.0.1) date 2024-09-21 06:00:00*
%MOMM*%
%LPD*%
G01*
G04 APERTURE LIST*
G04 Aperture macros list*
%AMRoundRect*
0 Rectangle with rounded corners*
0 $1 Rounding radius*
0 $2 $3 $4 $5 $6 $7 $8 $9 X,Y pos of 4 corners*
0 Add a 4 corners polygon primitive as box body*
4,1,4,$2,$3,$4,$5,$6,$7,$8,$9,$2,$3,0*
0 Add four circle primitives for the rounded corners*
1,1,$1+$1,$2,$3*
1,1,$1+$1,$4,$5*
1,1,$1+$1,$6,$7*
1,1,$1+$1,$8,$9*
0 Add four rect primitives between the rounded corners*
20,1,$1+$1,$2,$3,$4,$5,0*
20,1,$1+$1,$4,$5,$6,$7,0*
20,1,$1+$1,$6,$7,$8,$9,0*
20,1,$1+$1,$8,$9,$2,$3,0*%
%AMFreePoly0*
4,1,19,0.000000,0.744911,0.071157,0.744911,0.207708,0.704816,0.327430,0.627875,0.420627,0.520320,0.479746,0.390866,0.500000,0.250000,0.500000,-0.250000,0.479746,-0.390866,0.420627,-0.520320,0.327430,-0.627875,0.207708,-0.704816,0.071157,-0.744911,0.000000,-0.744911,0.000000,-0.750000,-0.550000,-0.750000,-0.550000,0.750000,0.000000,0.750000,0.000000,0.744911,0.000000,0.744911,
$1*%
%AMFreePoly1*
4,1,19,0.550000,-0.750000,0.000000,-0.750000,0.000000,-0.744911,-0.071157,-0.744911,-0.207708,-0.704816,-0.327430,-0.627875,-0.420627,-0.520320,-0.479746,-0.390866,-0.500000,-0.250000,-0.500000,0.250000,-0.479746,0.390866,-0.420627,0.520320,-0.327430,0.627875,-0.207708,0.704816,-0.071157,0.744911,0.000000,0.744911,0.000000,0.750000,0.550000,0.750000,0.550000,-0.750000,0.550000,-0.750000,
$1*%
G04 Aperture macros list end*
%ADD10C,0.150000*%
%ADD11C,0.100000*%
%ADD12C,0.120000*%
%ADD13C,3.800000*%
%ADD14RoundRect,0.102000X-0.654000X-0.654000X0.654000X-0.654000X0.654000X0.654000X-0.654000X0.654000X0*%
%ADD15C,1.512000*%
%ADD16R,1.800000X1.800000*%
%ADD17C,1.800000*%
%ADD18O,1.700000X1.700000*%
%ADD19R,1.700000X1.700000*%
%ADD20RoundRect,0.150000X-0.512500X-0.150000X0.512500X-0.150000X0.512500X0.150000X-0.512500X0.150000X0*%
%ADD21RoundRect,0.200000X0.275000X-0.200000X0.275000X0.200000X-0.275000X0.200000X-0.275000X-0.200000X0*%
%ADD22RoundRect,0.200000X0.200000X0.275000X-0.200000X0.275000X-0.200000X-0.275000X0.200000X-0.275000X0*%
%ADD23RoundRect,0.200000X-0.275000X0.200000X-0.275000X-0.200000X0.275000X-0.200000X0.275000X0.200000X0*%
%ADD24FreePoly0,180.000000*%
%ADD25R,1.000000X1.500000*%
%ADD26FreePoly1,180.000000*%
%ADD27RoundRect,0.225000X0.250000X-0.225000X0.250000X0.225000X-0.250000X0.225000X-0.250000X-0.225000X0*%
%ADD28RoundRect,0.225000X-0.250000X0.225000X-0.250000X-0.225000X0.250000X-0.225000X0.250000X0.225000X0*%
G04 APERTURE END LIST*
D10*
X168836779Y-96759875D02*
X168836779Y-95759875D01*
X168836779Y-95759875D02*
X169074874Y-95759875D01*
X169074874Y-95759875D02*
X169217731Y-95807494D01*
X169217731Y-95807494D02*
X169312969Y-95902732D01*
X169312969Y-95902732D02*
X169360588Y-95997970D01*
X169360588Y-95997970D02*
X169408207Y-96188446D01*
X169408207Y-96188446D02*
X169408207Y-96331303D01*
X169408207Y-96331303D02*
X169360588Y-96521779D01*
X169360588Y-96521779D02*
X169312969Y-96617017D01*
X169312969Y-96617017D02*
X169217731Y-96712256D01*
X169217731Y-96712256D02*
X169074874Y-96759875D01*
X169074874Y-96759875D02*
X168836779Y-96759875D01*
X170217731Y-96712256D02*
X170122493Y-96759875D01*
X170122493Y-96759875D02*
X169932017Y-96759875D01*
X169932017Y-96759875D02*
X169836779Y-96712256D01*
X169836779Y-96712256D02*
X169789160Y-96617017D01*
X169789160Y-96617017D02*
X169789160Y-96236065D01*
X169789160Y-96236065D02*
X169836779Y-96140827D01*
X169836779Y-96140827D02*
X169932017Y-96093208D01*
X169932017Y-96093208D02*
X170122493Y-96093208D01*
X170122493Y-96093208D02*
X170217731Y-96140827D01*
X170217731Y-96140827D02*
X170265350Y-96236065D01*
X170265350Y-96236065D02*
X170265350Y-96331303D01*
X170265350Y-96331303D02*
X169789160Y-96426541D01*
X170646303Y-96712256D02*
X170741541Y-96759875D01*
X170741541Y-96759875D02*
X170932017Y-96759875D01*
X170932017Y-96759875D02*
X171027255Y-96712256D01*
X171027255Y-96712256D02*
X171074874Y-96617017D01*
X171074874Y-96617017D02*
X171074874Y-96569398D01*
X171074874Y-96569398D02*
X171027255Y-96474160D01*
X171027255Y-96474160D02*
X170932017Y-96426541D01*
X170932017Y-96426541D02*
X170789160Y-96426541D01*
X170789160Y-96426541D02*
X170693922Y-96378922D01*
X170693922Y-96378922D02*
X170646303Y-96283684D01*
X170646303Y-96283684D02*
X170646303Y-96236065D01*
X170646303Y-96236065D02*
X170693922Y-96140827D01*
X170693922Y-96140827D02*
X170789160Y-96093208D01*
X170789160Y-96093208D02*
X170932017Y-96093208D01*
X170932017Y-96093208D02*
X171027255Y-96140827D01*
X171503446Y-96759875D02*
X171503446Y-96093208D01*
X171503446Y-95759875D02*
X171455827Y-95807494D01*
X171455827Y-95807494D02*
X171503446Y-95855113D01*
X171503446Y-95855113D02*
X171551065Y-95807494D01*
X171551065Y-95807494D02*
X171503446Y-95759875D01*
X171503446Y-95759875D02*
X171503446Y-95855113D01*
X172408207Y-96093208D02*
X172408207Y-96902732D01*
X172408207Y-96902732D02*
X172360588Y-96997970D01*
X172360588Y-96997970D02*
X172312969Y-97045589D01*
X172312969Y-97045589D02*
X172217731Y-97093208D01*
X172217731Y-97093208D02*
X172074874Y-97093208D01*
X172074874Y-97093208D02*
X171979636Y-97045589D01*
X172408207Y-96712256D02*
X172312969Y-96759875D01*
X172312969Y-96759875D02*
X172122493Y-96759875D01*
X172122493Y-96759875D02*
X172027255Y-96712256D01*
X172027255Y-96712256D02*
X171979636Y-96664636D01*
X171979636Y-96664636D02*
X171932017Y-96569398D01*
X171932017Y-96569398D02*
X171932017Y-96283684D01*
X171932017Y-96283684D02*
X171979636Y-96188446D01*
X171979636Y-96188446D02*
X172027255Y-96140827D01*
X172027255Y-96140827D02*
X172122493Y-96093208D01*
X172122493Y-96093208D02*
X172312969Y-96093208D01*
X172312969Y-96093208D02*
X172408207Y-96140827D01*
X172884398Y-96093208D02*
X172884398Y-96759875D01*
X172884398Y-96188446D02*
X172932017Y-96140827D01*
X172932017Y-96140827D02*
X173027255Y-96093208D01*
X173027255Y-96093208D02*
X173170112Y-96093208D01*
X173170112Y-96093208D02*
X173265350Y-96140827D01*
X173265350Y-96140827D02*
X173312969Y-96236065D01*
X173312969Y-96236065D02*
X173312969Y-96759875D01*
X174551065Y-96759875D02*
X174551065Y-95759875D01*
X174551065Y-96140827D02*
X174646303Y-96093208D01*
X174646303Y-96093208D02*
X174836779Y-96093208D01*
X174836779Y-96093208D02*
X174932017Y-96140827D01*
X174932017Y-96140827D02*
X174979636Y-96188446D01*
X174979636Y-96188446D02*
X175027255Y-96283684D01*
X175027255Y-96283684D02*
X175027255Y-96569398D01*
X175027255Y-96569398D02*
X174979636Y-96664636D01*
X174979636Y-96664636D02*
X174932017Y-96712256D01*
X174932017Y-96712256D02*
X174836779Y-96759875D01*
X174836779Y-96759875D02*
X174646303Y-96759875D01*
X174646303Y-96759875D02*
X174551065Y-96712256D01*
X175360589Y-96093208D02*
X175598684Y-96759875D01*
X175836779Y-96093208D02*
X175598684Y-96759875D01*
X175598684Y-96759875D02*
X175503446Y-96997970D01*
X175503446Y-96997970D02*
X175455827Y-97045589D01*
X175455827Y-97045589D02*
X175360589Y-97093208D01*
X168836779Y-98369819D02*
X168836779Y-97369819D01*
X168836779Y-97369819D02*
X169074874Y-97369819D01*
X169074874Y-97369819D02*
X169217731Y-97417438D01*
X169217731Y-97417438D02*
X169312969Y-97512676D01*
X169312969Y-97512676D02*
X169360588Y-97607914D01*
X169360588Y-97607914D02*
X169408207Y-97798390D01*
X169408207Y-97798390D02*
X169408207Y-97941247D01*
X169408207Y-97941247D02*
X169360588Y-98131723D01*
X169360588Y-98131723D02*
X169312969Y-98226961D01*
X169312969Y-98226961D02*
X169217731Y-98322200D01*
X169217731Y-98322200D02*
X169074874Y-98369819D01*
X169074874Y-98369819D02*
X168836779Y-98369819D01*
X169979636Y-98369819D02*
X169884398Y-98322200D01*
X169884398Y-98322200D02*
X169836779Y-98274580D01*
X169836779Y-98274580D02*
X169789160Y-98179342D01*
X169789160Y-98179342D02*
X169789160Y-97893628D01*
X169789160Y-97893628D02*
X169836779Y-97798390D01*
X169836779Y-97798390D02*
X169884398Y-97750771D01*
X169884398Y-97750771D02*
X169979636Y-97703152D01*
X169979636Y-97703152D02*
X170122493Y-97703152D01*
X170122493Y-97703152D02*
X170217731Y-97750771D01*
X170217731Y-97750771D02*
X170265350Y-97798390D01*
X170265350Y-97798390D02*
X170312969Y-97893628D01*
X170312969Y-97893628D02*
X170312969Y-98179342D01*
X170312969Y-98179342D02*
X170265350Y-98274580D01*
X170265350Y-98274580D02*
X170217731Y-98322200D01*
X170217731Y-98322200D02*
X170122493Y-98369819D01*
X170122493Y-98369819D02*
X169979636Y-98369819D01*
X170741541Y-98274580D02*
X170789160Y-98322200D01*
X170789160Y-98322200D02*
X170741541Y-98369819D01*
X170741541Y-98369819D02*
X170693922Y-98322200D01*
X170693922Y-98322200D02*
X170741541Y-98274580D01*
X170741541Y-98274580D02*
X170741541Y-98369819D01*
X171217731Y-98369819D02*
X171217731Y-97369819D01*
X171217731Y-97369819D02*
X171789159Y-98369819D01*
X171789159Y-98369819D02*
X171789159Y-97369819D01*
X172408207Y-98369819D02*
X172312969Y-98322200D01*
X172312969Y-98322200D02*
X172265350Y-98274580D01*
X172265350Y-98274580D02*
X172217731Y-98179342D01*
X172217731Y-98179342D02*
X172217731Y-97893628D01*
X172217731Y-97893628D02*
X172265350Y-97798390D01*
X172265350Y-97798390D02*
X172312969Y-97750771D01*
X172312969Y-97750771D02*
X172408207Y-97703152D01*
X172408207Y-97703152D02*
X172551064Y-97703152D01*
X172551064Y-97703152D02*
X172646302Y-97750771D01*
X172646302Y-97750771D02*
X172693921Y-97798390D01*
X172693921Y-97798390D02*
X172741540Y-97893628D01*
X172741540Y-97893628D02*
X172741540Y-98179342D01*
X172741540Y-98179342D02*
X172693921Y-98274580D01*
X172693921Y-98274580D02*
X172646302Y-98322200D01*
X172646302Y-98322200D02*
X172551064Y-98369819D01*
X172551064Y-98369819D02*
X172408207Y-98369819D01*
X178238095Y-81954819D02*
X178238095Y-80954819D01*
X178238095Y-81431009D02*
X178809523Y-81431009D01*
X178809523Y-81954819D02*
X178809523Y-80954819D01*
X179714285Y-81288152D02*
X179714285Y-81954819D01*
X179476190Y-80907200D02*
X179238095Y-81621485D01*
X179238095Y-81621485D02*
X179857142Y-81621485D01*
X160115300Y-93955740D02*
X160115300Y-92953748D01*
X160115300Y-92953748D02*
X160497011Y-92953748D01*
X160497011Y-92953748D02*
X160592439Y-93001462D01*
X160592439Y-93001462D02*
X160640153Y-93049176D01*
X160640153Y-93049176D02*
X160687867Y-93144604D01*
X160687867Y-93144604D02*
X160687867Y-93287746D01*
X160687867Y-93287746D02*
X160640153Y-93383174D01*
X160640153Y-93383174D02*
X160592439Y-93430887D01*
X160592439Y-93430887D02*
X160497011Y-93478601D01*
X160497011Y-93478601D02*
X160115300Y-93478601D01*
X161117292Y-93955740D02*
X161117292Y-92953748D01*
X161117292Y-92953748D02*
X161451289Y-93669457D01*
X161451289Y-93669457D02*
X161785287Y-92953748D01*
X161785287Y-92953748D02*
X161785287Y-93955740D01*
X162166998Y-92953748D02*
X162405568Y-93955740D01*
X162405568Y-93955740D02*
X162596423Y-93240032D01*
X162596423Y-93240032D02*
X162787279Y-93955740D01*
X162787279Y-93955740D02*
X163025849Y-92953748D01*
X163932413Y-93955740D02*
X163359846Y-93955740D01*
X163646130Y-93955740D02*
X163646130Y-92953748D01*
X163646130Y-92953748D02*
X163550702Y-93096890D01*
X163550702Y-93096890D02*
X163455274Y-93192318D01*
X163455274Y-93192318D02*
X163359846Y-93240032D01*
X176954819Y-88233094D02*
X175954819Y-88233094D01*
X175954819Y-88233094D02*
X175954819Y-87994999D01*
X175954819Y-87994999D02*
X176002438Y-87852142D01*
X176002438Y-87852142D02*
X176097676Y-87756904D01*
X176097676Y-87756904D02*
X176192914Y-87709285D01*
X176192914Y-87709285D02*
X176383390Y-87661666D01*
X176383390Y-87661666D02*
X176526247Y-87661666D01*
X176526247Y-87661666D02*
X176716723Y-87709285D01*
X176716723Y-87709285D02*
X176811961Y-87756904D01*
X176811961Y-87756904D02*
X176907200Y-87852142D01*
X176907200Y-87852142D02*
X176954819Y-87994999D01*
X176954819Y-87994999D02*
X176954819Y-88233094D01*
X176954819Y-86709285D02*
X176954819Y-87280713D01*
X176954819Y-86994999D02*
X175954819Y-86994999D01*
X175954819Y-86994999D02*
X176097676Y-87090237D01*
X176097676Y-87090237D02*
X176192914Y-87185475D01*
X176192914Y-87185475D02*
X176240533Y-87280713D01*
X178238095Y-93954819D02*
X178238095Y-92954819D01*
X178238095Y-93431009D02*
X178809523Y-93431009D01*
X178809523Y-93954819D02*
X178809523Y-92954819D01*
X179190476Y-92954819D02*
X179809523Y-92954819D01*
X179809523Y-92954819D02*
X179476190Y-93335771D01*
X179476190Y-93335771D02*
X179619047Y-93335771D01*
X179619047Y-93335771D02*
X179714285Y-93383390D01*
X179714285Y-93383390D02*
X179761904Y-93431009D01*
X179761904Y-93431009D02*
X179809523Y-93526247D01*
X179809523Y-93526247D02*
X179809523Y-93764342D01*
X179809523Y-93764342D02*
X179761904Y-93859580D01*
X179761904Y-93859580D02*
X179714285Y-93907200D01*
X179714285Y-93907200D02*
X179619047Y-93954819D01*
X179619047Y-93954819D02*
X179333333Y-93954819D01*
X179333333Y-93954819D02*
X179238095Y-93907200D01*
X179238095Y-93907200D02*
X179190476Y-93859580D01*
X139238095Y-94554819D02*
X139238095Y-93554819D01*
X139238095Y-94031009D02*
X139809523Y-94031009D01*
X139809523Y-94554819D02*
X139809523Y-93554819D01*
X140238095Y-93650057D02*
X140285714Y-93602438D01*
X140285714Y-93602438D02*
X140380952Y-93554819D01*
X140380952Y-93554819D02*
X140619047Y-93554819D01*
X140619047Y-93554819D02*
X140714285Y-93602438D01*
X140714285Y-93602438D02*
X140761904Y-93650057D01*
X140761904Y-93650057D02*
X140809523Y-93745295D01*
X140809523Y-93745295D02*
X140809523Y-93840533D01*
X140809523Y-93840533D02*
X140761904Y-93983390D01*
X140761904Y-93983390D02*
X140190476Y-94554819D01*
X140190476Y-94554819D02*
X140809523Y-94554819D01*
X139238095Y-81454819D02*
X139238095Y-80454819D01*
X139238095Y-80931009D02*
X139809523Y-80931009D01*
X139809523Y-81454819D02*
X139809523Y-80454819D01*
X140809523Y-81454819D02*
X140238095Y-81454819D01*
X140523809Y-81454819D02*
X140523809Y-80454819D01*
X140523809Y-80454819D02*
X140428571Y-80597676D01*
X140428571Y-80597676D02*
X140333333Y-80692914D01*
X140333333Y-80692914D02*
X140238095Y-80740533D01*
X144454819Y-97833333D02*
X145169104Y-97833333D01*
X145169104Y-97833333D02*
X145311961Y-97880952D01*
X145311961Y-97880952D02*
X145407200Y-97976190D01*
X145407200Y-97976190D02*
X145454819Y-98119047D01*
X145454819Y-98119047D02*
X145454819Y-98214285D01*
X145454819Y-96833333D02*
X145454819Y-97404761D01*
X145454819Y-97119047D02*
X144454819Y-97119047D01*
X144454819Y-97119047D02*
X144597676Y-97214285D01*
X144597676Y-97214285D02*
X144692914Y-97309523D01*
X144692914Y-97309523D02*
X144740533Y-97404761D01*
X147454819Y-81761904D02*
X148264342Y-81761904D01*
X148264342Y-81761904D02*
X148359580Y-81714285D01*
X148359580Y-81714285D02*
X148407200Y-81666666D01*
X148407200Y-81666666D02*
X148454819Y-81571428D01*
X148454819Y-81571428D02*
X148454819Y-81380952D01*
X148454819Y-81380952D02*
X148407200Y-81285714D01*
X148407200Y-81285714D02*
X148359580Y-81238095D01*
X148359580Y-81238095D02*
X148264342Y-81190476D01*
X148264342Y-81190476D02*
X147454819Y-81190476D01*
X147550057Y-80761904D02*
X147502438Y-80714285D01*
X147502438Y-80714285D02*
X147454819Y-80619047D01*
X147454819Y-80619047D02*
X147454819Y-80380952D01*
X147454819Y-80380952D02*
X147502438Y-80285714D01*
X147502438Y-80285714D02*
X147550057Y-80238095D01*
X147550057Y-80238095D02*
X147645295Y-80190476D01*
X147645295Y-80190476D02*
X147740533Y-80190476D01*
X147740533Y-80190476D02*
X147883390Y-80238095D01*
X147883390Y-80238095D02*
X148454819Y-80809523D01*
X148454819Y-80809523D02*
X148454819Y-80190476D01*
X165954819Y-97666666D02*
X165478628Y-97999999D01*
X165954819Y-98238094D02*
X164954819Y-98238094D01*
X164954819Y-98238094D02*
X164954819Y-97857142D01*
X164954819Y-97857142D02*
X165002438Y-97761904D01*
X165002438Y-97761904D02*
X165050057Y-97714285D01*
X165050057Y-97714285D02*
X165145295Y-97666666D01*
X165145295Y-97666666D02*
X165288152Y-97666666D01*
X165288152Y-97666666D02*
X165383390Y-97714285D01*
X165383390Y-97714285D02*
X165431009Y-97761904D01*
X165431009Y-97761904D02*
X165478628Y-97857142D01*
X165478628Y-97857142D02*
X165478628Y-98238094D01*
X164954819Y-97333332D02*
X164954819Y-96714285D01*
X164954819Y-96714285D02*
X165335771Y-97047618D01*
X165335771Y-97047618D02*
X165335771Y-96904761D01*
X165335771Y-96904761D02*
X165383390Y-96809523D01*
X165383390Y-96809523D02*
X165431009Y-96761904D01*
X165431009Y-96761904D02*
X165526247Y-96714285D01*
X165526247Y-96714285D02*
X165764342Y-96714285D01*
X165764342Y-96714285D02*
X165859580Y-96761904D01*
X165859580Y-96761904D02*
X165907200Y-96809523D01*
X165907200Y-96809523D02*
X165954819Y-96904761D01*
X165954819Y-96904761D02*
X165954819Y-97190475D01*
X165954819Y-97190475D02*
X165907200Y-97285713D01*
X165907200Y-97285713D02*
X165859580Y-97333332D01*
X172954819Y-78666666D02*
X172478628Y-78999999D01*
X172954819Y-79238094D02*
X171954819Y-79238094D01*
X171954819Y-79238094D02*
X171954819Y-78857142D01*
X171954819Y-78857142D02*
X172002438Y-78761904D01*
X172002438Y-78761904D02*
X172050057Y-78714285D01*
X172050057Y-78714285D02*
X172145295Y-78666666D01*
X172145295Y-78666666D02*
X172288152Y-78666666D01*
X172288152Y-78666666D02*
X172383390Y-78714285D01*
X172383390Y-78714285D02*
X172431009Y-78761904D01*
X172431009Y-78761904D02*
X172478628Y-78857142D01*
X172478628Y-78857142D02*
X172478628Y-79238094D01*
X172050057Y-78285713D02*
X172002438Y-78238094D01*
X172002438Y-78238094D02*
X171954819Y-78142856D01*
X171954819Y-78142856D02*
X171954819Y-77904761D01*
X171954819Y-77904761D02*
X172002438Y-77809523D01*
X172002438Y-77809523D02*
X172050057Y-77761904D01*
X172050057Y-77761904D02*
X172145295Y-77714285D01*
X172145295Y-77714285D02*
X172240533Y-77714285D01*
X172240533Y-77714285D02*
X172383390Y-77761904D01*
X172383390Y-77761904D02*
X172954819Y-78333332D01*
X172954819Y-78333332D02*
X172954819Y-77714285D01*
X163454819Y-80666666D02*
X162978628Y-80999999D01*
X163454819Y-81238094D02*
X162454819Y-81238094D01*
X162454819Y-81238094D02*
X162454819Y-80857142D01*
X162454819Y-80857142D02*
X162502438Y-80761904D01*
X162502438Y-80761904D02*
X162550057Y-80714285D01*
X162550057Y-80714285D02*
X162645295Y-80666666D01*
X162645295Y-80666666D02*
X162788152Y-80666666D01*
X162788152Y-80666666D02*
X162883390Y-80714285D01*
X162883390Y-80714285D02*
X162931009Y-80761904D01*
X162931009Y-80761904D02*
X162978628Y-80857142D01*
X162978628Y-80857142D02*
X162978628Y-81238094D01*
X163454819Y-79714285D02*
X163454819Y-80285713D01*
X163454819Y-79999999D02*
X162454819Y-79999999D01*
X162454819Y-79999999D02*
X162597676Y-80095237D01*
X162597676Y-80095237D02*
X162692914Y-80190475D01*
X162692914Y-80190475D02*
X162740533Y-80285713D01*
X168954819Y-78833333D02*
X169669104Y-78833333D01*
X169669104Y-78833333D02*
X169811961Y-78880952D01*
X169811961Y-78880952D02*
X169907200Y-78976190D01*
X169907200Y-78976190D02*
X169954819Y-79119047D01*
X169954819Y-79119047D02*
X169954819Y-79214285D01*
X169954819Y-78357142D02*
X168954819Y-78357142D01*
X168954819Y-78357142D02*
X168954819Y-77976190D01*
X168954819Y-77976190D02*
X169002438Y-77880952D01*
X169002438Y-77880952D02*
X169050057Y-77833333D01*
X169050057Y-77833333D02*
X169145295Y-77785714D01*
X169145295Y-77785714D02*
X169288152Y-77785714D01*
X169288152Y-77785714D02*
X169383390Y-77833333D01*
X169383390Y-77833333D02*
X169431009Y-77880952D01*
X169431009Y-77880952D02*
X169478628Y-77976190D01*
X169478628Y-77976190D02*
X169478628Y-78357142D01*
X169954819Y-76833333D02*
X169954819Y-77404761D01*
X169954819Y-77119047D02*
X168954819Y-77119047D01*
X168954819Y-77119047D02*
X169097676Y-77214285D01*
X169097676Y-77214285D02*
X169192914Y-77309523D01*
X169192914Y-77309523D02*
X169240533Y-77404761D01*
X160359580Y-80666666D02*
X160407200Y-80714285D01*
X160407200Y-80714285D02*
X160454819Y-80857142D01*
X160454819Y-80857142D02*
X160454819Y-80952380D01*
X160454819Y-80952380D02*
X160407200Y-81095237D01*
X160407200Y-81095237D02*
X160311961Y-81190475D01*
X160311961Y-81190475D02*
X160216723Y-81238094D01*
X160216723Y-81238094D02*
X160026247Y-81285713D01*
X160026247Y-81285713D02*
X159883390Y-81285713D01*
X159883390Y-81285713D02*
X159692914Y-81238094D01*
X159692914Y-81238094D02*
X159597676Y-81190475D01*
X159597676Y-81190475D02*
X159502438Y-81095237D01*
X159502438Y-81095237D02*
X159454819Y-80952380D01*
X159454819Y-80952380D02*
X159454819Y-80857142D01*
X159454819Y-80857142D02*
X159502438Y-80714285D01*
X159502438Y-80714285D02*
X159550057Y-80666666D01*
X159788152Y-79809523D02*
X160454819Y-79809523D01*
X159407200Y-80047618D02*
X160121485Y-80285713D01*
X160121485Y-80285713D02*
X160121485Y-79666666D01*
X158359580Y-80666666D02*
X158407200Y-80714285D01*
X158407200Y-80714285D02*
X158454819Y-80857142D01*
X158454819Y-80857142D02*
X158454819Y-80952380D01*
X158454819Y-80952380D02*
X158407200Y-81095237D01*
X158407200Y-81095237D02*
X158311961Y-81190475D01*
X158311961Y-81190475D02*
X158216723Y-81238094D01*
X158216723Y-81238094D02*
X158026247Y-81285713D01*
X158026247Y-81285713D02*
X157883390Y-81285713D01*
X157883390Y-81285713D02*
X157692914Y-81238094D01*
X157692914Y-81238094D02*
X157597676Y-81190475D01*
X157597676Y-81190475D02*
X157502438Y-81095237D01*
X157502438Y-81095237D02*
X157454819Y-80952380D01*
X157454819Y-80952380D02*
X157454819Y-80857142D01*
X157454819Y-80857142D02*
X157502438Y-80714285D01*
X157502438Y-80714285D02*
X157550057Y-80666666D01*
X157454819Y-80333332D02*
X157454819Y-79714285D01*
X157454819Y-79714285D02*
X157835771Y-80047618D01*
X157835771Y-80047618D02*
X157835771Y-79904761D01*
X157835771Y-79904761D02*
X157883390Y-79809523D01*
X157883390Y-79809523D02*
X157931009Y-79761904D01*
X157931009Y-79761904D02*
X158026247Y-79714285D01*
X158026247Y-79714285D02*
X158264342Y-79714285D01*
X158264342Y-79714285D02*
X158359580Y-79761904D01*
X158359580Y-79761904D02*
X158407200Y-79809523D01*
X158407200Y-79809523D02*
X158454819Y-79904761D01*
X158454819Y-79904761D02*
X158454819Y-80190475D01*
X158454819Y-80190475D02*
X158407200Y-80285713D01*
X158407200Y-80285713D02*
X158359580Y-80333332D01*
X153359580Y-77166666D02*
X153407200Y-77214285D01*
X153407200Y-77214285D02*
X153454819Y-77357142D01*
X153454819Y-77357142D02*
X153454819Y-77452380D01*
X153454819Y-77452380D02*
X153407200Y-77595237D01*
X153407200Y-77595237D02*
X153311961Y-77690475D01*
X153311961Y-77690475D02*
X153216723Y-77738094D01*
X153216723Y-77738094D02*
X153026247Y-77785713D01*
X153026247Y-77785713D02*
X152883390Y-77785713D01*
X152883390Y-77785713D02*
X152692914Y-77738094D01*
X152692914Y-77738094D02*
X152597676Y-77690475D01*
X152597676Y-77690475D02*
X152502438Y-77595237D01*
X152502438Y-77595237D02*
X152454819Y-77452380D01*
X152454819Y-77452380D02*
X152454819Y-77357142D01*
X152454819Y-77357142D02*
X152502438Y-77214285D01*
X152502438Y-77214285D02*
X152550057Y-77166666D01*
X152550057Y-76785713D02*
X152502438Y-76738094D01*
X152502438Y-76738094D02*
X152454819Y-76642856D01*
X152454819Y-76642856D02*
X152454819Y-76404761D01*
X152454819Y-76404761D02*
X152502438Y-76309523D01*
X152502438Y-76309523D02*
X152550057Y-76261904D01*
X152550057Y-76261904D02*
X152645295Y-76214285D01*
X152645295Y-76214285D02*
X152740533Y-76214285D01*
X152740533Y-76214285D02*
X152883390Y-76261904D01*
X152883390Y-76261904D02*
X153454819Y-76833332D01*
X153454819Y-76833332D02*
X153454819Y-76214285D01*
X144359580Y-77166666D02*
X144407200Y-77214285D01*
X144407200Y-77214285D02*
X144454819Y-77357142D01*
X144454819Y-77357142D02*
X144454819Y-77452380D01*
X144454819Y-77452380D02*
X144407200Y-77595237D01*
X144407200Y-77595237D02*
X144311961Y-77690475D01*
X144311961Y-77690475D02*
X144216723Y-77738094D01*
X144216723Y-77738094D02*
X144026247Y-77785713D01*
X144026247Y-77785713D02*
X143883390Y-77785713D01*
X143883390Y-77785713D02*
X143692914Y-77738094D01*
X143692914Y-77738094D02*
X143597676Y-77690475D01*
X143597676Y-77690475D02*
X143502438Y-77595237D01*
X143502438Y-77595237D02*
X143454819Y-77452380D01*
X143454819Y-77452380D02*
X143454819Y-77357142D01*
X143454819Y-77357142D02*
X143502438Y-77214285D01*
X143502438Y-77214285D02*
X143550057Y-77166666D01*
X144454819Y-76214285D02*
X144454819Y-76785713D01*
X144454819Y-76499999D02*
X143454819Y-76499999D01*
X143454819Y-76499999D02*
X143597676Y-76595237D01*
X143597676Y-76595237D02*
X143692914Y-76690475D01*
X143692914Y-76690475D02*
X143740533Y-76785713D01*
D11*
X150707107Y-84225000D02*
G75*
G02*
X149292893Y-84225000I-707107J0D01*
G01*
X149292893Y-84225000D02*
G75*
G02*
X150707107Y-84225000I707107J0D01*
G01*
D12*
X178265000Y-84935000D02*
X172105000Y-84935000D01*
X178265000Y-84935000D02*
X178265000Y-90055000D01*
X178395000Y-86225000D02*
X178395000Y-86225000D01*
X178395000Y-86225000D02*
X178265000Y-86225000D01*
X178265000Y-86225000D02*
X178395000Y-86225000D01*
X178265000Y-86225000D02*
X178265000Y-86225000D01*
X178395000Y-88765000D02*
X178395000Y-88765000D01*
X178395000Y-88765000D02*
X178265000Y-88765000D01*
X178265000Y-88765000D02*
X178395000Y-88765000D01*
X178265000Y-88765000D02*
X178265000Y-88765000D01*
X178265000Y-90055000D02*
X172105000Y-90055000D01*
X178265000Y-90055000D02*
X178265000Y-90455000D01*
X177145000Y-90055000D02*
X178265000Y-90055000D01*
X178265000Y-90455000D02*
X177145000Y-90455000D01*
X177145000Y-90455000D02*
X177145000Y-90055000D01*
X172105000Y-90055000D02*
G75*
G02*
X172105000Y-84935000I0J2560000D01*
G01*
X146590000Y-98830000D02*
X146590000Y-97500000D01*
X147920000Y-98830000D02*
X146590000Y-98830000D01*
X149190000Y-98830000D02*
X149190000Y-96170000D01*
X149190000Y-96170000D02*
X161950000Y-96170000D01*
X149190000Y-98830000D02*
X161950000Y-98830000D01*
X161950000Y-98830000D02*
X161950000Y-96170000D01*
X150000000Y-76440000D02*
X149200000Y-76440000D01*
X150000000Y-76440000D02*
X150800000Y-76440000D01*
X150000000Y-79560000D02*
X149200000Y-79560000D01*
X150000000Y-79560000D02*
X150800000Y-79560000D01*
X148700000Y-76490000D02*
X148460000Y-76160000D01*
X148940000Y-76160000D01*
X148700000Y-76490000D01*
G36*
X148700000Y-76490000D02*
G01*
X148460000Y-76160000D01*
X148940000Y-76160000D01*
X148700000Y-76490000D01*
G37*
X164022500Y-97562258D02*
X164022500Y-97087742D01*
X162977500Y-97562258D02*
X162977500Y-97087742D01*
X173737258Y-80977500D02*
X173262742Y-80977500D01*
X173737258Y-82022500D02*
X173262742Y-82022500D01*
X163522500Y-77762742D02*
X163522500Y-78237258D01*
X162477500Y-77762742D02*
X162477500Y-78237258D01*
X164250000Y-77700000D02*
G75*
G02*
X164950000Y-77000000I700000J0D01*
G01*
X164950000Y-79000000D02*
G75*
G02*
X164250000Y-78300000I0J700000D01*
G01*
X167650000Y-77000000D02*
G75*
G02*
X168350000Y-77700000I1J-699999D01*
G01*
X168350000Y-78300000D02*
G75*
G02*
X167650000Y-79000000I-699999J-1D01*
G01*
X164250000Y-78300000D02*
X164250000Y-77700000D01*
X164900000Y-77000000D02*
X167700000Y-77000000D01*
X167500000Y-76800000D02*
X167200000Y-76500000D01*
X167500000Y-76800000D02*
X167800000Y-76500000D01*
X167700000Y-79000000D02*
X164900000Y-79000000D01*
X167800000Y-76500000D02*
X167200000Y-76500000D01*
X168350000Y-77700000D02*
X168350000Y-78300000D01*
X160510000Y-78140580D02*
X160510000Y-77859420D01*
X159490000Y-78140580D02*
X159490000Y-77859420D01*
X157490000Y-78140580D02*
X157490000Y-77859420D01*
X158510000Y-78140580D02*
X158510000Y-77859420D01*
X153990000Y-77859420D02*
X153990000Y-78140580D01*
X155010000Y-77859420D02*
X155010000Y-78140580D01*
X145490000Y-78140580D02*
X145490000Y-77859420D01*
X146510000Y-78140580D02*
X146510000Y-77859420D01*
%LPC*%
D13*
X179000000Y-78000000D03*
D14*
X156000000Y-81125000D03*
D15*
X154000000Y-81125000D03*
X152000000Y-81125000D03*
X150000000Y-81125000D03*
X151000000Y-93725000D03*
X153000000Y-93725000D03*
X155000000Y-93725000D03*
X157000000Y-93725000D03*
D16*
X179475000Y-86225000D03*
D17*
X179475000Y-88765000D03*
D13*
X179000000Y-97000000D03*
X140000000Y-97000000D03*
X140000000Y-78000000D03*
D18*
X160620000Y-97500000D03*
X158080000Y-97500000D03*
X155540000Y-97500000D03*
X153000000Y-97500000D03*
X150460000Y-97500000D03*
D19*
X147920000Y-97500000D03*
D20*
X148862500Y-77050000D03*
X148862500Y-78000000D03*
X148862500Y-78950000D03*
X151137500Y-78950000D03*
X151137500Y-77050000D03*
D21*
X163500000Y-96500000D03*
X163500000Y-98150000D03*
D22*
X172675000Y-81500000D03*
X174325000Y-81500000D03*
D23*
X163000000Y-77175000D03*
X163000000Y-78825000D03*
D24*
X165000000Y-78000000D03*
D25*
X166300000Y-78000000D03*
D26*
X167600000Y-78000000D03*
D27*
X160000000Y-77225000D03*
X160000000Y-78775000D03*
X158000000Y-78775000D03*
X158000000Y-77225000D03*
D28*
X154500000Y-78775000D03*
X154500000Y-77225000D03*
D27*
X146000000Y-78775000D03*
X146000000Y-77225000D03*
%LPD*%
M02*
