%TF.GenerationSoftware,KiCad,Pcbnew,8.0.1*%
%TF.CreationDate,2024-09-21T06:00:00+02:00*%
%TF.ProjectId,PMW3360,504d5733-3336-4302-9e6b-696361645f70,rev?*%
%TF.SameCoordinates,Original*%
%TF.FileFunction,Copper,L2,Bot*%
%TF.FilePolarity,Positive*%
%FSLAX46Y46*%
G04 Gerber Fmt 4.6, Leading zero omitted, Abs format (unit mm)*
G04 Created by KiCad (PCBNEW 8.0.1) date 2024-09-21 06:00:00*
%MOMM*%
%LPD*%
G01*
G04 APERTURE LIST*
%TA.AperFunction,ComponentPad*%
%ADD10C,3.800000*%
%TD*%
%TA.AperFunction,ComponentPad*%
%ADD11R,1.308000X1.308000*%
%TD*%
%TA.AperFunction,ComponentPad*%
%ADD12C,1.308000*%
%TD*%
%TA.AperFunction,ComponentPad*%
%ADD13R,1.800000X1.800000*%
%TD*%
%TA.AperFunction,ComponentPad*%
%ADD14C,1.800000*%
%TD*%
%TA.AperFunction,ComponentPad*%
%ADD15O,1.700000X1.700000*%
%TD*%
%TA.AperFunction,ComponentPad*%
%ADD16R,1.700000X1.700000*%
%TD*%
%TA.AperFunction,ViaPad*%
%ADD17C,0.800000*%
%TD*%
%TA.AperFunction,Conductor*%
%ADD18C,0.375000*%
%TD*%
%TA.AperFunction,Conductor*%
%ADD19C,0.250000*%
%TD*%
G04 APERTURE END LIST*
D10*
X179000000Y-78000000D03*
D11*
X156000000Y-81125000D03*
D12*
X154000000Y-81125000D03*
X152000000Y-81125000D03*
X150000000Y-81125000D03*
X151000000Y-93725000D03*
X153000000Y-93725000D03*
X155000000Y-93725000D03*
X157000000Y-93725000D03*
D13*
X179475000Y-86225000D03*
D14*
X179475000Y-88765000D03*
D10*
X179000000Y-97000000D03*
X140000000Y-97000000D03*
X140000000Y-78000000D03*
D15*
X160620000Y-97500000D03*
X158080000Y-97500000D03*
X155540000Y-97500000D03*
X153000000Y-97500000D03*
X150460000Y-97500000D03*
D16*
X147920000Y-97500000D03*
D17*
X161500000Y-77000000D03*
X156000000Y-77500000D03*
X153000000Y-78500000D03*
X147500000Y-78500000D03*
X161500000Y-79000000D03*
D18*
X147920000Y-97420000D02*
X147920000Y-97500000D01*
X141500000Y-94000000D02*
X144500000Y-94000000D01*
X141000000Y-81500000D02*
X141000000Y-93500000D01*
X141000000Y-93500000D02*
X141500000Y-94000000D01*
X144500000Y-94000000D02*
X147920000Y-97420000D01*
X146000000Y-81500000D02*
X141000000Y-81500000D01*
X147000000Y-80500000D02*
X146000000Y-81500000D01*
X147000000Y-79000000D02*
X147000000Y-80500000D01*
X147500000Y-78500000D02*
X147000000Y-79000000D01*
X147920000Y-97500000D02*
X148000000Y-97500000D01*
D19*
X162000000Y-80500000D02*
X161500000Y-80500000D01*
X161500000Y-80500000D02*
X161500000Y-80000000D01*
X159687500Y-82312500D02*
X161500000Y-80500000D01*
X171500000Y-91500000D02*
X171500000Y-81000000D01*
X171500000Y-81000000D02*
X171000000Y-80500000D01*
X165500000Y-97500000D02*
X171500000Y-91500000D01*
X160620000Y-97500000D02*
X165500000Y-97500000D01*
X171000000Y-80500000D02*
X162000000Y-80500000D01*
X161500000Y-80000000D02*
X161500000Y-79000000D01*
D18*
X157000000Y-77000000D02*
X156500000Y-77500000D01*
X161500000Y-77000000D02*
X157000000Y-77000000D01*
X156500000Y-77500000D02*
X156000000Y-77500000D01*
X152500000Y-78000000D02*
X153000000Y-78500000D01*
X147500000Y-78500000D02*
X148000000Y-78000000D01*
X148000000Y-78000000D02*
X152500000Y-78000000D01*
D19*
X150000000Y-81125000D02*
X151187500Y-82312500D01*
X151187500Y-82312500D02*
X159687500Y-82312500D01*
D18*
X154000000Y-79500000D02*
X153000000Y-79500000D01*
X156000000Y-77500000D02*
X154000000Y-79500000D01*
X153000000Y-79500000D02*
X152000000Y-80500000D01*
X152000000Y-81125000D02*
X152000000Y-80500000D01*
X152500000Y-95500000D02*
X153000000Y-95000000D01*
X153000000Y-95000000D02*
X153000000Y-93725000D01*
X149500000Y-95500000D02*
X152500000Y-95500000D01*
X147920000Y-97080000D02*
X149500000Y-95500000D01*
X147920000Y-97500000D02*
X147920000Y-97080000D01*
D19*
X157000000Y-95000000D02*
X157000000Y-93725000D01*
X156000000Y-96000000D02*
X157000000Y-95000000D01*
X154500000Y-96000000D02*
X156000000Y-96000000D01*
X153000000Y-97500000D02*
X154500000Y-96000000D01*
%TA.AperFunction,Conductor*%
G36*
X152416744Y-92520185D02*
G01*
X152462499Y-92572989D01*
X152472443Y-92642147D01*
X152443418Y-92705703D01*
X152414982Y-92729927D01*
X152380087Y-92751532D01*
X152380086Y-92751533D01*
X152953554Y-93325000D01*
X152947339Y-93325000D01*
X152845606Y-93352259D01*
X152754394Y-93404920D01*
X152679920Y-93479394D01*
X152627259Y-93570606D01*
X152600000Y-93672339D01*
X152600000Y-93678553D01*
X152012273Y-93090826D01*
X151987329Y-93085346D01*
X151948031Y-93051367D01*
X151862778Y-92938474D01*
X151862776Y-92938471D01*
X151703565Y-92793332D01*
X151703564Y-92793331D01*
X151601162Y-92729926D01*
X151554528Y-92677899D01*
X151543424Y-92608917D01*
X151571377Y-92544883D01*
X151629512Y-92506127D01*
X151666441Y-92500500D01*
X152349705Y-92500500D01*
X152416744Y-92520185D01*
G37*
%TD.AperFunction*%
%TA.AperFunction,Conductor*%
G36*
X154400598Y-92520185D02*
G01*
X154446353Y-92572989D01*
X154456297Y-92642147D01*
X154427272Y-92705703D01*
X154398837Y-92729927D01*
X154296434Y-92793332D01*
X154137223Y-92938472D01*
X154051969Y-93051366D01*
X153995860Y-93093002D01*
X153983834Y-93094718D01*
X153400000Y-93678552D01*
X153400000Y-93672339D01*
X153372741Y-93570606D01*
X153320080Y-93479394D01*
X153245606Y-93404920D01*
X153154394Y-93352259D01*
X153052661Y-93325000D01*
X153046447Y-93325000D01*
X153619912Y-92751533D01*
X153585017Y-92729927D01*
X153538382Y-92677899D01*
X153527278Y-92608917D01*
X153555231Y-92544883D01*
X153613367Y-92506126D01*
X153650295Y-92500500D01*
X154333559Y-92500500D01*
X154400598Y-92520185D01*
G37*
%TD.AperFunction*%
%TA.AperFunction,Conductor*%
G36*
X179003244Y-75025670D02*
G01*
X179304433Y-75041455D01*
X179317340Y-75042812D01*
X179376810Y-75052231D01*
X179612022Y-75089484D01*
X179624690Y-75092176D01*
X179912901Y-75169402D01*
X179925228Y-75173407D01*
X180203781Y-75280334D01*
X180215617Y-75285603D01*
X180481477Y-75421065D01*
X180492683Y-75427535D01*
X180742923Y-75590044D01*
X180753414Y-75597666D01*
X180985282Y-75785429D01*
X180994927Y-75794114D01*
X181205885Y-76005072D01*
X181214570Y-76014717D01*
X181402333Y-76246585D01*
X181409958Y-76257079D01*
X181572460Y-76507310D01*
X181578937Y-76518529D01*
X181714391Y-76784372D01*
X181719669Y-76796227D01*
X181737049Y-76841502D01*
X181826589Y-77074762D01*
X181830600Y-77087107D01*
X181907819Y-77375293D01*
X181910517Y-77387989D01*
X181957187Y-77682659D01*
X181958544Y-77695566D01*
X181974330Y-77996756D01*
X181974500Y-78003246D01*
X181974500Y-96996753D01*
X181974330Y-97003243D01*
X181958544Y-97304433D01*
X181957187Y-97317340D01*
X181910517Y-97612010D01*
X181907819Y-97624706D01*
X181830600Y-97912892D01*
X181826589Y-97925237D01*
X181719670Y-98203770D01*
X181714391Y-98215627D01*
X181578941Y-98481464D01*
X181572455Y-98492697D01*
X181476022Y-98641191D01*
X181409962Y-98742914D01*
X181402333Y-98753414D01*
X181214570Y-98985282D01*
X181205885Y-98994927D01*
X180994927Y-99205885D01*
X180985282Y-99214570D01*
X180753414Y-99402333D01*
X180742914Y-99409962D01*
X180492697Y-99572455D01*
X180481464Y-99578941D01*
X180215627Y-99714391D01*
X180203770Y-99719670D01*
X179925237Y-99826589D01*
X179912892Y-99830600D01*
X179624706Y-99907819D01*
X179612010Y-99910517D01*
X179317340Y-99957187D01*
X179304433Y-99958544D01*
X179003244Y-99974330D01*
X178996754Y-99974500D01*
X140003246Y-99974500D01*
X139996756Y-99974330D01*
X139695566Y-99958544D01*
X139682659Y-99957187D01*
X139387989Y-99910517D01*
X139375293Y-99907819D01*
X139087107Y-99830600D01*
X139074762Y-99826589D01*
X138796229Y-99719670D01*
X138784372Y-99714391D01*
X138755029Y-99699440D01*
X138518529Y-99578937D01*
X138507310Y-99572460D01*
X138257079Y-99409958D01*
X138246585Y-99402333D01*
X138014717Y-99214570D01*
X138005072Y-99205885D01*
X137794114Y-98994927D01*
X137785429Y-98985282D01*
X137597666Y-98753414D01*
X137590044Y-98742923D01*
X137427535Y-98492683D01*
X137421065Y-98481477D01*
X137285603Y-98215617D01*
X137280334Y-98203781D01*
X137173407Y-97925228D01*
X137169402Y-97912901D01*
X137092176Y-97624690D01*
X137089484Y-97612022D01*
X137042812Y-97317340D01*
X137041455Y-97304433D01*
X137025670Y-97003243D01*
X137025585Y-97000005D01*
X137595255Y-97000005D01*
X137614215Y-97301383D01*
X137614216Y-97301390D01*
X137670805Y-97598040D01*
X137764125Y-97885247D01*
X137764127Y-97885252D01*
X137892704Y-98158491D01*
X137892707Y-98158497D01*
X138054516Y-98413469D01*
X138135311Y-98511133D01*
X139063708Y-97582736D01*
X139160967Y-97716602D01*
X139283398Y-97839033D01*
X139417262Y-97936290D01*
X138486564Y-98866987D01*
X138486565Y-98866989D01*
X138711461Y-99030385D01*
X138711479Y-99030397D01*
X138976109Y-99175878D01*
X138976117Y-99175882D01*
X139256889Y-99287047D01*
X139256892Y-99287048D01*
X139549399Y-99362150D01*
X139848995Y-99399999D01*
X139849007Y-99400000D01*
X140150993Y-99400000D01*
X140151004Y-99399999D01*
X140450600Y-99362150D01*
X140743107Y-99287048D01*
X140743110Y-99287047D01*
X141023882Y-99175882D01*
X141023890Y-99175878D01*
X141288520Y-99030397D01*
X141288530Y-99030390D01*
X141513433Y-98866987D01*
X141513434Y-98866987D01*
X140582737Y-97936290D01*
X140716602Y-97839033D01*
X140839033Y-97716602D01*
X140936290Y-97582737D01*
X141864687Y-98511134D01*
X141945486Y-98413464D01*
X142107292Y-98158497D01*
X142107295Y-98158491D01*
X142235872Y-97885252D01*
X142235874Y-97885247D01*
X142329194Y-97598040D01*
X142385783Y-97301390D01*
X142385784Y-97301383D01*
X142404745Y-97000005D01*
X142404745Y-96999994D01*
X142385784Y-96698616D01*
X142385783Y-96698609D01*
X142329194Y-96401959D01*
X142235874Y-96114752D01*
X142235872Y-96114747D01*
X142107295Y-95841508D01*
X142107292Y-95841502D01*
X141945483Y-95586530D01*
X141864686Y-95488864D01*
X140936289Y-96417261D01*
X140839033Y-96283398D01*
X140716602Y-96160967D01*
X140582736Y-96063709D01*
X141513434Y-95133011D01*
X141513433Y-95133009D01*
X141288538Y-94969614D01*
X141288520Y-94969602D01*
X141023890Y-94824121D01*
X141023882Y-94824117D01*
X140743110Y-94712952D01*
X140743107Y-94712951D01*
X140450600Y-94637849D01*
X140151004Y-94600000D01*
X139848995Y-94600000D01*
X139549399Y-94637849D01*
X139256892Y-94712951D01*
X139256889Y-94712952D01*
X138976117Y-94824117D01*
X138976109Y-94824121D01*
X138711476Y-94969604D01*
X138711471Y-94969607D01*
X138486565Y-95133010D01*
X138486564Y-95133011D01*
X139417262Y-96063709D01*
X139283398Y-96160967D01*
X139160967Y-96283398D01*
X139063709Y-96417262D01*
X138135311Y-95488864D01*
X138054520Y-95586525D01*
X138054518Y-95586528D01*
X137892707Y-95841502D01*
X137892704Y-95841508D01*
X137764127Y-96114747D01*
X137764125Y-96114752D01*
X137670805Y-96401959D01*
X137614216Y-96698609D01*
X137614215Y-96698616D01*
X137595255Y-96999994D01*
X137595255Y-97000005D01*
X137025585Y-97000005D01*
X137025500Y-96996753D01*
X137025500Y-92485562D01*
X141914500Y-92485562D01*
X141929438Y-92500500D01*
X150333559Y-92500500D01*
X150400598Y-92520185D01*
X150446353Y-92572989D01*
X150456297Y-92642147D01*
X150427272Y-92705703D01*
X150398837Y-92729927D01*
X150296434Y-92793332D01*
X150137223Y-92938471D01*
X150007386Y-93110402D01*
X149911360Y-93303249D01*
X149911356Y-93303259D01*
X149852398Y-93510480D01*
X149832520Y-93725000D01*
X149852398Y-93939519D01*
X149911356Y-94146740D01*
X149911360Y-94146750D01*
X150007386Y-94339597D01*
X150137223Y-94511528D01*
X150296435Y-94656668D01*
X150296437Y-94656670D01*
X150479605Y-94770083D01*
X150479611Y-94770086D01*
X150481302Y-94770741D01*
X150680504Y-94847912D01*
X150892279Y-94887500D01*
X150892281Y-94887500D01*
X151107719Y-94887500D01*
X151107721Y-94887500D01*
X151319496Y-94847912D01*
X151520391Y-94770085D01*
X151703564Y-94656669D01*
X151862778Y-94511526D01*
X151948031Y-94398632D01*
X152004140Y-94356997D01*
X152016164Y-94355281D01*
X152600000Y-93771445D01*
X152600000Y-93777661D01*
X152627259Y-93879394D01*
X152679920Y-93970606D01*
X152754394Y-94045080D01*
X152845606Y-94097741D01*
X152947339Y-94125000D01*
X152953553Y-94125000D01*
X152380086Y-94698465D01*
X152483413Y-94762443D01*
X152483414Y-94762444D01*
X152682837Y-94839700D01*
X152893068Y-94879000D01*
X153106932Y-94879000D01*
X153317162Y-94839700D01*
X153516585Y-94762444D01*
X153516589Y-94762442D01*
X153619911Y-94698466D01*
X153619911Y-94698465D01*
X153046448Y-94125000D01*
X153052661Y-94125000D01*
X153154394Y-94097741D01*
X153245606Y-94045080D01*
X153320080Y-93970606D01*
X153372741Y-93879394D01*
X153400000Y-93777661D01*
X153400000Y-93771446D01*
X153987724Y-94359170D01*
X154012671Y-94364653D01*
X154051967Y-94398631D01*
X154137225Y-94511530D01*
X154296435Y-94656668D01*
X154296437Y-94656670D01*
X154479605Y-94770083D01*
X154479611Y-94770086D01*
X154481302Y-94770741D01*
X154680504Y-94847912D01*
X154892279Y-94887500D01*
X154892281Y-94887500D01*
X155107719Y-94887500D01*
X155107721Y-94887500D01*
X155319496Y-94847912D01*
X155520391Y-94770085D01*
X155703564Y-94656669D01*
X155862778Y-94511526D01*
X155901047Y-94460848D01*
X155957154Y-94419215D01*
X156026866Y-94414522D01*
X156088048Y-94448264D01*
X156098945Y-94460840D01*
X156137222Y-94511526D01*
X156279452Y-94641186D01*
X156315731Y-94700893D01*
X156313971Y-94770741D01*
X156283593Y-94820501D01*
X155773915Y-95330181D01*
X155712592Y-95363666D01*
X155686234Y-95366500D01*
X154437601Y-95366500D01*
X154315222Y-95390843D01*
X154315214Y-95390845D01*
X154199927Y-95438598D01*
X154199918Y-95438603D01*
X154096167Y-95507928D01*
X154096163Y-95507931D01*
X153456991Y-96147103D01*
X153395668Y-96180588D01*
X153338876Y-96179629D01*
X153334641Y-96178556D01*
X153112569Y-96141500D01*
X152887431Y-96141500D01*
X152665362Y-96178556D01*
X152452430Y-96251656D01*
X152452419Y-96251661D01*
X152254427Y-96358808D01*
X152254422Y-96358812D01*
X152076761Y-96497092D01*
X152076756Y-96497097D01*
X151924284Y-96662723D01*
X151924276Y-96662734D01*
X151833808Y-96801206D01*
X151780662Y-96846562D01*
X151711431Y-96855986D01*
X151648095Y-96826484D01*
X151626192Y-96801206D01*
X151559166Y-96698616D01*
X151535722Y-96662732D01*
X151535719Y-96662729D01*
X151535715Y-96662723D01*
X151383243Y-96497097D01*
X151383238Y-96497092D01*
X151205577Y-96358812D01*
X151205572Y-96358808D01*
X151007580Y-96251661D01*
X151007577Y-96251659D01*
X151007574Y-96251658D01*
X151007571Y-96251657D01*
X151007569Y-96251656D01*
X150794637Y-96178556D01*
X150572569Y-96141500D01*
X150347431Y-96141500D01*
X150125362Y-96178556D01*
X149912430Y-96251656D01*
X149912419Y-96251661D01*
X149714427Y-96358808D01*
X149714422Y-96358812D01*
X149536761Y-96497092D01*
X149467092Y-96572773D01*
X149407205Y-96608763D01*
X149337367Y-96606662D01*
X149279751Y-96567137D01*
X149259681Y-96532122D01*
X149213354Y-96407913D01*
X149213350Y-96407906D01*
X149127190Y-96292812D01*
X149127187Y-96292809D01*
X149012093Y-96206649D01*
X149012086Y-96206645D01*
X148877379Y-96156403D01*
X148877372Y-96156401D01*
X148817844Y-96150000D01*
X148170000Y-96150000D01*
X148170000Y-97066988D01*
X148112993Y-97034075D01*
X147985826Y-97000000D01*
X147854174Y-97000000D01*
X147727007Y-97034075D01*
X147670000Y-97066988D01*
X147670000Y-96150000D01*
X147022155Y-96150000D01*
X146962627Y-96156401D01*
X146962620Y-96156403D01*
X146827913Y-96206645D01*
X146827906Y-96206649D01*
X146712812Y-96292809D01*
X146712809Y-96292812D01*
X146626649Y-96407906D01*
X146626645Y-96407913D01*
X146576403Y-96542620D01*
X146576401Y-96542627D01*
X146570000Y-96602155D01*
X146570000Y-97250000D01*
X147486988Y-97250000D01*
X147454075Y-97307007D01*
X147420000Y-97434174D01*
X147420000Y-97565826D01*
X147454075Y-97692993D01*
X147486988Y-97750000D01*
X146570000Y-97750000D01*
X146570000Y-98397844D01*
X146576401Y-98457372D01*
X146576403Y-98457379D01*
X146626645Y-98592086D01*
X146626649Y-98592093D01*
X146712809Y-98707187D01*
X146712812Y-98707190D01*
X146827906Y-98793350D01*
X146827913Y-98793354D01*
X146962620Y-98843596D01*
X146962627Y-98843598D01*
X147022155Y-98849999D01*
X147022172Y-98850000D01*
X147670000Y-98850000D01*
X147670000Y-97933012D01*
X147727007Y-97965925D01*
X147854174Y-98000000D01*
X147985826Y-98000000D01*
X148112993Y-97965925D01*
X148170000Y-97933012D01*
X148170000Y-98850000D01*
X148817828Y-98850000D01*
X148817844Y-98849999D01*
X148877372Y-98843598D01*
X148877379Y-98843596D01*
X149012086Y-98793354D01*
X149012093Y-98793350D01*
X149127187Y-98707190D01*
X149127190Y-98707187D01*
X149213350Y-98592093D01*
X149213354Y-98592086D01*
X149259681Y-98467877D01*
X149301552Y-98411943D01*
X149367016Y-98387526D01*
X149435289Y-98402377D01*
X149467089Y-98427223D01*
X149536760Y-98502906D01*
X149714424Y-98641189D01*
X149714425Y-98641189D01*
X149714427Y-98641191D01*
X149730829Y-98650067D01*
X149912426Y-98748342D01*
X150125365Y-98821444D01*
X150347431Y-98858500D01*
X150572569Y-98858500D01*
X150794635Y-98821444D01*
X151007574Y-98748342D01*
X151205576Y-98641189D01*
X151383240Y-98502906D01*
X151535722Y-98337268D01*
X151626193Y-98198790D01*
X151679338Y-98153437D01*
X151748569Y-98144013D01*
X151811905Y-98173515D01*
X151833804Y-98198787D01*
X151924278Y-98337268D01*
X151924283Y-98337273D01*
X151924284Y-98337276D01*
X152044513Y-98467877D01*
X152076760Y-98502906D01*
X152254424Y-98641189D01*
X152254425Y-98641189D01*
X152254427Y-98641191D01*
X152270829Y-98650067D01*
X152452426Y-98748342D01*
X152665365Y-98821444D01*
X152887431Y-98858500D01*
X153112569Y-98858500D01*
X153334635Y-98821444D01*
X153547574Y-98748342D01*
X153745576Y-98641189D01*
X153923240Y-98502906D01*
X154075722Y-98337268D01*
X154166193Y-98198790D01*
X154219338Y-98153437D01*
X154288569Y-98144013D01*
X154351905Y-98173515D01*
X154373804Y-98198787D01*
X154464278Y-98337268D01*
X154464283Y-98337273D01*
X154464284Y-98337276D01*
X154584513Y-98467877D01*
X154616760Y-98502906D01*
X154794424Y-98641189D01*
X154794425Y-98641189D01*
X154794427Y-98641191D01*
X154810829Y-98650067D01*
X154992426Y-98748342D01*
X155205365Y-98821444D01*
X155427431Y-98858500D01*
X155652569Y-98858500D01*
X155874635Y-98821444D01*
X156087574Y-98748342D01*
X156285576Y-98641189D01*
X156463240Y-98502906D01*
X156615722Y-98337268D01*
X156706193Y-98198790D01*
X156759338Y-98153437D01*
X156828569Y-98144013D01*
X156891905Y-98173515D01*
X156913804Y-98198787D01*
X157004278Y-98337268D01*
X157004283Y-98337273D01*
X157004284Y-98337276D01*
X157124513Y-98467877D01*
X157156760Y-98502906D01*
X157334424Y-98641189D01*
X157334425Y-98641189D01*
X157334427Y-98641191D01*
X157350829Y-98650067D01*
X157532426Y-98748342D01*
X157745365Y-98821444D01*
X157967431Y-98858500D01*
X158192569Y-98858500D01*
X158414635Y-98821444D01*
X158627574Y-98748342D01*
X158825576Y-98641189D01*
X159003240Y-98502906D01*
X159155722Y-98337268D01*
X159246193Y-98198790D01*
X159299338Y-98153437D01*
X159368569Y-98144013D01*
X159431905Y-98173515D01*
X159453804Y-98198787D01*
X159544278Y-98337268D01*
X159544283Y-98337273D01*
X159544284Y-98337276D01*
X159664513Y-98467877D01*
X159696760Y-98502906D01*
X159874424Y-98641189D01*
X159874425Y-98641189D01*
X159874427Y-98641191D01*
X159890829Y-98650067D01*
X160072426Y-98748342D01*
X160285365Y-98821444D01*
X160507431Y-98858500D01*
X160732569Y-98858500D01*
X160954635Y-98821444D01*
X161167574Y-98748342D01*
X161365576Y-98641189D01*
X161543240Y-98502906D01*
X161695722Y-98337268D01*
X161775194Y-98215627D01*
X161792148Y-98189678D01*
X161845294Y-98144321D01*
X161895956Y-98133500D01*
X165562395Y-98133500D01*
X165562396Y-98133499D01*
X165684785Y-98109155D01*
X165800075Y-98061400D01*
X165903833Y-97992071D01*
X166895899Y-97000005D01*
X176595255Y-97000005D01*
X176614215Y-97301383D01*
X176614216Y-97301390D01*
X176670805Y-97598040D01*
X176764125Y-97885247D01*
X176764127Y-97885252D01*
X176892704Y-98158491D01*
X176892707Y-98158497D01*
X177054516Y-98413469D01*
X177135311Y-98511133D01*
X178063708Y-97582736D01*
X178160967Y-97716602D01*
X178283398Y-97839033D01*
X178417262Y-97936290D01*
X177486564Y-98866987D01*
X177486565Y-98866989D01*
X177711461Y-99030385D01*
X177711479Y-99030397D01*
X177976109Y-99175878D01*
X177976117Y-99175882D01*
X178256889Y-99287047D01*
X178256892Y-99287048D01*
X178549399Y-99362150D01*
X178848995Y-99399999D01*
X178849007Y-99400000D01*
X179150993Y-99400000D01*
X179151004Y-99399999D01*
X179450600Y-99362150D01*
X179743107Y-99287048D01*
X179743110Y-99287047D01*
X180023882Y-99175882D01*
X180023890Y-99175878D01*
X180288520Y-99030397D01*
X180288530Y-99030390D01*
X180513433Y-98866987D01*
X180513434Y-98866987D01*
X179582737Y-97936290D01*
X179716602Y-97839033D01*
X179839033Y-97716602D01*
X179936290Y-97582737D01*
X180864687Y-98511134D01*
X180945486Y-98413464D01*
X181107292Y-98158497D01*
X181107295Y-98158491D01*
X181235872Y-97885252D01*
X181235874Y-97885247D01*
X181329194Y-97598040D01*
X181385783Y-97301390D01*
X181385784Y-97301383D01*
X181404745Y-97000005D01*
X181404745Y-96999994D01*
X181385784Y-96698616D01*
X181385783Y-96698609D01*
X181329194Y-96401959D01*
X181235874Y-96114752D01*
X181235872Y-96114747D01*
X181107295Y-95841508D01*
X181107292Y-95841502D01*
X180945483Y-95586530D01*
X180864686Y-95488864D01*
X179936289Y-96417261D01*
X179839033Y-96283398D01*
X179716602Y-96160967D01*
X179582736Y-96063709D01*
X180513434Y-95133011D01*
X180513433Y-95133009D01*
X180288538Y-94969614D01*
X180288520Y-94969602D01*
X180023890Y-94824121D01*
X180023882Y-94824117D01*
X179743110Y-94712952D01*
X179743107Y-94712951D01*
X179450600Y-94637849D01*
X179151004Y-94600000D01*
X178848995Y-94600000D01*
X178549399Y-94637849D01*
X178256892Y-94712951D01*
X178256889Y-94712952D01*
X177976117Y-94824117D01*
X177976109Y-94824121D01*
X177711476Y-94969604D01*
X177711471Y-94969607D01*
X177486565Y-95133010D01*
X177486564Y-95133011D01*
X178417262Y-96063709D01*
X178283398Y-96160967D01*
X178160967Y-96283398D01*
X178063709Y-96417262D01*
X177135311Y-95488864D01*
X177054520Y-95586525D01*
X177054518Y-95586528D01*
X176892707Y-95841502D01*
X176892704Y-95841508D01*
X176764127Y-96114747D01*
X176764125Y-96114752D01*
X176670805Y-96401959D01*
X176614216Y-96698609D01*
X176614215Y-96698616D01*
X176595255Y-96999994D01*
X176595255Y-97000005D01*
X166895899Y-97000005D01*
X171992071Y-91903833D01*
X172061400Y-91800075D01*
X172109155Y-91684785D01*
X172133500Y-91562394D01*
X172133500Y-91437607D01*
X172133500Y-88765005D01*
X178061673Y-88765005D01*
X178080948Y-88997622D01*
X178138251Y-89223907D01*
X178232015Y-89437668D01*
X178359686Y-89633084D01*
X178517776Y-89804814D01*
X178517780Y-89804818D01*
X178701983Y-89948190D01*
X178701985Y-89948191D01*
X178701988Y-89948193D01*
X178821331Y-90012777D01*
X178907273Y-90059287D01*
X179021914Y-90098643D01*
X179128045Y-90135079D01*
X179128047Y-90135079D01*
X179128049Y-90135080D01*
X179358288Y-90173500D01*
X179358289Y-90173500D01*
X179591711Y-90173500D01*
X179591712Y-90173500D01*
X179821951Y-90135080D01*
X180042727Y-90059287D01*
X180248017Y-89948190D01*
X180432220Y-89804818D01*
X180590314Y-89633083D01*
X180717984Y-89437669D01*
X180811749Y-89223907D01*
X180869051Y-88997626D01*
X180888327Y-88765000D01*
X180869051Y-88532374D01*
X180811749Y-88306093D01*
X180717984Y-88092331D01*
X180590313Y-87896915D01*
X180503143Y-87802224D01*
X180472220Y-87739570D01*
X180480080Y-87670144D01*
X180524227Y-87615988D01*
X180551032Y-87602061D01*
X180621204Y-87575889D01*
X180738261Y-87488261D01*
X180825889Y-87371204D01*
X180876989Y-87234201D01*
X180880591Y-87200692D01*
X180883499Y-87173654D01*
X180883500Y-87173637D01*
X180883500Y-85276362D01*
X180883499Y-85276345D01*
X180880157Y-85245270D01*
X180876989Y-85215799D01*
X180825889Y-85078796D01*
X180738261Y-84961739D01*
X180621204Y-84874111D01*
X180484203Y-84823011D01*
X180423654Y-84816500D01*
X180423638Y-84816500D01*
X178526362Y-84816500D01*
X178526345Y-84816500D01*
X178465797Y-84823011D01*
X178465795Y-84823011D01*
X178328795Y-84874111D01*
X178211739Y-84961739D01*
X178124111Y-85078795D01*
X178073011Y-85215795D01*
X178073011Y-85215797D01*
X178066500Y-85276345D01*
X178066500Y-87173654D01*
X178073011Y-87234202D01*
X178073011Y-87234204D01*
X178124111Y-87371204D01*
X178211739Y-87488261D01*
X178328796Y-87575889D01*
X178328795Y-87575889D01*
X178398961Y-87602060D01*
X178454895Y-87643931D01*
X178479311Y-87709396D01*
X178464459Y-87777669D01*
X178446857Y-87802224D01*
X178359683Y-87896919D01*
X178232015Y-88092331D01*
X178138251Y-88306092D01*
X178080948Y-88532377D01*
X178061673Y-88764994D01*
X178061673Y-88765005D01*
X172133500Y-88765005D01*
X172133500Y-80937606D01*
X172109155Y-80815215D01*
X172102884Y-80800075D01*
X172061401Y-80699925D01*
X172061399Y-80699923D01*
X172061399Y-80699921D01*
X171992072Y-80596167D01*
X171992069Y-80596163D01*
X171403836Y-80007931D01*
X171403832Y-80007928D01*
X171300081Y-79938603D01*
X171300072Y-79938598D01*
X171184785Y-79890845D01*
X171184777Y-79890843D01*
X171062398Y-79866500D01*
X171062394Y-79866500D01*
X162257500Y-79866500D01*
X162190461Y-79846815D01*
X162144706Y-79794011D01*
X162133500Y-79742500D01*
X162133500Y-79701756D01*
X162153185Y-79634717D01*
X162165346Y-79618788D01*
X162239040Y-79536944D01*
X162334527Y-79371556D01*
X162393542Y-79189928D01*
X162413504Y-79000000D01*
X162393542Y-78810072D01*
X162334527Y-78628444D01*
X162239040Y-78463056D01*
X162111253Y-78321134D01*
X161956752Y-78208882D01*
X161782288Y-78131206D01*
X161782286Y-78131205D01*
X161735637Y-78121290D01*
X161674155Y-78088098D01*
X161640379Y-78026935D01*
X161642176Y-78000005D01*
X176595255Y-78000005D01*
X176614215Y-78301383D01*
X176614216Y-78301390D01*
X176670805Y-78598040D01*
X176764125Y-78885247D01*
X176764127Y-78885252D01*
X176892704Y-79158491D01*
X176892707Y-79158497D01*
X177054516Y-79413469D01*
X177135311Y-79511133D01*
X178063708Y-78582736D01*
X178160967Y-78716602D01*
X178283398Y-78839033D01*
X178417262Y-78936290D01*
X177486564Y-79866987D01*
X177486565Y-79866989D01*
X177711461Y-80030385D01*
X177711479Y-80030397D01*
X177976109Y-80175878D01*
X177976117Y-80175882D01*
X178256889Y-80287047D01*
X178256892Y-80287048D01*
X178549399Y-80362150D01*
X178848995Y-80399999D01*
X178849007Y-80400000D01*
X179150993Y-80400000D01*
X179151004Y-80399999D01*
X179450600Y-80362150D01*
X179743107Y-80287048D01*
X179743110Y-80287047D01*
X180023882Y-80175882D01*
X180023890Y-80175878D01*
X180288520Y-80030397D01*
X180288530Y-80030390D01*
X180513433Y-79866987D01*
X180513434Y-79866987D01*
X179582737Y-78936290D01*
X179716602Y-78839033D01*
X179839033Y-78716602D01*
X179936290Y-78582737D01*
X180864687Y-79511134D01*
X180945486Y-79413464D01*
X181107292Y-79158497D01*
X181107295Y-79158491D01*
X181235872Y-78885252D01*
X181235874Y-78885247D01*
X181329194Y-78598040D01*
X181385783Y-78301390D01*
X181385784Y-78301383D01*
X181404745Y-78000005D01*
X181404745Y-77999994D01*
X181385784Y-77698616D01*
X181385783Y-77698609D01*
X181329194Y-77401959D01*
X181235874Y-77114752D01*
X181235872Y-77114747D01*
X181107295Y-76841508D01*
X181107292Y-76841502D01*
X180945483Y-76586530D01*
X180864686Y-76488864D01*
X179936289Y-77417261D01*
X179839033Y-77283398D01*
X179716602Y-77160967D01*
X179582736Y-77063709D01*
X180513434Y-76133011D01*
X180513433Y-76133009D01*
X180288538Y-75969614D01*
X180288520Y-75969602D01*
X180023890Y-75824121D01*
X180023882Y-75824117D01*
X179743110Y-75712952D01*
X179743107Y-75712951D01*
X179450600Y-75637849D01*
X179151004Y-75600000D01*
X178848995Y-75600000D01*
X178549399Y-75637849D01*
X178256892Y-75712951D01*
X178256889Y-75712952D01*
X177976117Y-75824117D01*
X177976109Y-75824121D01*
X177711476Y-75969604D01*
X177711471Y-75969607D01*
X177486565Y-76133010D01*
X177486564Y-76133011D01*
X178417262Y-77063709D01*
X178283398Y-77160967D01*
X178160967Y-77283398D01*
X178063709Y-77417262D01*
X177135311Y-76488864D01*
X177054520Y-76586525D01*
X177054518Y-76586528D01*
X176892707Y-76841502D01*
X176892704Y-76841508D01*
X176764127Y-77114747D01*
X176764125Y-77114752D01*
X176670805Y-77401959D01*
X176614216Y-77698609D01*
X176614215Y-77698616D01*
X176595255Y-77999994D01*
X176595255Y-78000005D01*
X161642176Y-78000005D01*
X161645031Y-77957220D01*
X161686636Y-77901088D01*
X161735637Y-77878710D01*
X161782288Y-77868794D01*
X161956752Y-77791118D01*
X162111253Y-77678866D01*
X162239040Y-77536944D01*
X162334527Y-77371556D01*
X162393542Y-77189928D01*
X162413504Y-77000000D01*
X162393542Y-76810072D01*
X162334527Y-76628444D01*
X162239040Y-76463056D01*
X162111253Y-76321134D01*
X161956752Y-76208882D01*
X161782288Y-76131206D01*
X161782286Y-76131205D01*
X161595487Y-76091500D01*
X161404513Y-76091500D01*
X161217714Y-76131205D01*
X161043243Y-76208884D01*
X160944924Y-76280318D01*
X160879118Y-76303798D01*
X160872039Y-76304000D01*
X157068551Y-76304000D01*
X156931450Y-76304000D01*
X156864217Y-76317373D01*
X156796983Y-76330746D01*
X156750664Y-76349933D01*
X156750663Y-76349933D01*
X156670316Y-76383213D01*
X156556327Y-76459379D01*
X156413165Y-76602541D01*
X156351842Y-76636025D01*
X156287175Y-76632793D01*
X156282290Y-76631206D01*
X156095487Y-76591500D01*
X155904513Y-76591500D01*
X155717714Y-76631205D01*
X155543246Y-76708883D01*
X155388745Y-76821135D01*
X155260959Y-76963057D01*
X155165473Y-77128443D01*
X155165470Y-77128450D01*
X155106459Y-77310067D01*
X155106457Y-77310078D01*
X155099398Y-77377230D01*
X155072813Y-77441844D01*
X155063759Y-77451947D01*
X153748027Y-78767681D01*
X153686704Y-78801166D01*
X153660346Y-78804000D01*
X153074685Y-78804000D01*
X153074665Y-78803999D01*
X153068551Y-78803999D01*
X152931450Y-78803999D01*
X152931447Y-78803999D01*
X152796991Y-78830744D01*
X152796983Y-78830746D01*
X152707419Y-78867845D01*
X152670321Y-78883210D01*
X152556326Y-78959380D01*
X152556322Y-78959383D01*
X151773207Y-79742500D01*
X151556328Y-79959379D01*
X151556326Y-79959381D01*
X151518755Y-79996952D01*
X151459380Y-80056326D01*
X151433169Y-80095553D01*
X151395347Y-80132086D01*
X151296436Y-80193330D01*
X151296435Y-80193331D01*
X151137222Y-80338472D01*
X151098953Y-80389149D01*
X151042844Y-80430784D01*
X150973132Y-80435475D01*
X150911950Y-80401732D01*
X150901047Y-80389149D01*
X150862777Y-80338472D01*
X150703564Y-80193331D01*
X150703562Y-80193329D01*
X150520394Y-80079916D01*
X150520388Y-80079913D01*
X150362056Y-80018576D01*
X150319496Y-80002088D01*
X150107721Y-79962500D01*
X149892279Y-79962500D01*
X149680504Y-80002088D01*
X149680501Y-80002088D01*
X149680501Y-80002089D01*
X149479611Y-80079913D01*
X149479605Y-80079916D01*
X149296437Y-80193329D01*
X149296435Y-80193331D01*
X149137223Y-80338471D01*
X149007386Y-80510402D01*
X148911360Y-80703249D01*
X148911356Y-80703259D01*
X148852398Y-80910480D01*
X148832520Y-81125000D01*
X148852398Y-81339519D01*
X148911356Y-81546740D01*
X148911360Y-81546750D01*
X149007386Y-81739597D01*
X149137223Y-81911528D01*
X149296435Y-82056668D01*
X149296437Y-82056670D01*
X149479605Y-82170083D01*
X149479611Y-82170086D01*
X149522169Y-82186573D01*
X149680504Y-82247912D01*
X149892279Y-82287500D01*
X149892281Y-82287500D01*
X150107718Y-82287500D01*
X150107721Y-82287500D01*
X150177325Y-82274488D01*
X150246839Y-82281519D01*
X150287791Y-82308696D01*
X150366914Y-82387819D01*
X150400399Y-82449142D01*
X150395415Y-82518834D01*
X150353543Y-82574767D01*
X150288079Y-82599184D01*
X150279233Y-82599500D01*
X141929437Y-82599500D01*
X141914500Y-82614437D01*
X141914500Y-82614438D01*
X141914500Y-92464438D01*
X141914500Y-92485562D01*
X137025500Y-92485562D01*
X137025500Y-78003246D01*
X137025585Y-78000005D01*
X137595255Y-78000005D01*
X137614215Y-78301383D01*
X137614216Y-78301390D01*
X137670805Y-78598040D01*
X137764125Y-78885247D01*
X137764127Y-78885252D01*
X137892704Y-79158491D01*
X137892707Y-79158497D01*
X138054516Y-79413469D01*
X138135311Y-79511133D01*
X139063708Y-78582736D01*
X139160967Y-78716602D01*
X139283398Y-78839033D01*
X139417262Y-78936290D01*
X138486564Y-79866987D01*
X138486565Y-79866989D01*
X138711461Y-80030385D01*
X138711479Y-80030397D01*
X138976109Y-80175878D01*
X138976117Y-80175882D01*
X139256889Y-80287047D01*
X139256892Y-80287048D01*
X139549399Y-80362150D01*
X139848995Y-80399999D01*
X139849007Y-80400000D01*
X140150993Y-80400000D01*
X140151004Y-80399999D01*
X140450600Y-80362150D01*
X140743107Y-80287048D01*
X140743110Y-80287047D01*
X141023882Y-80175882D01*
X141023890Y-80175878D01*
X141288520Y-80030397D01*
X141288530Y-80030390D01*
X141513433Y-79866987D01*
X141513434Y-79866987D01*
X140582737Y-78936290D01*
X140716602Y-78839033D01*
X140839033Y-78716602D01*
X140936290Y-78582737D01*
X141864687Y-79511134D01*
X141945486Y-79413464D01*
X142107292Y-79158497D01*
X142107295Y-79158491D01*
X142235872Y-78885252D01*
X142235874Y-78885247D01*
X142329194Y-78598040D01*
X142385783Y-78301390D01*
X142385784Y-78301383D01*
X142404745Y-78000005D01*
X142404745Y-77999994D01*
X142385784Y-77698616D01*
X142385783Y-77698609D01*
X142329194Y-77401959D01*
X142235874Y-77114752D01*
X142235872Y-77114747D01*
X142107295Y-76841508D01*
X142107292Y-76841502D01*
X141945483Y-76586530D01*
X141864686Y-76488864D01*
X140936289Y-77417261D01*
X140839033Y-77283398D01*
X140716602Y-77160967D01*
X140582736Y-77063709D01*
X141513434Y-76133011D01*
X141513433Y-76133009D01*
X141288538Y-75969614D01*
X141288520Y-75969602D01*
X141023890Y-75824121D01*
X141023882Y-75824117D01*
X140743110Y-75712952D01*
X140743107Y-75712951D01*
X140450600Y-75637849D01*
X140151004Y-75600000D01*
X139848995Y-75600000D01*
X139549399Y-75637849D01*
X139256892Y-75712951D01*
X139256889Y-75712952D01*
X138976117Y-75824117D01*
X138976109Y-75824121D01*
X138711476Y-75969604D01*
X138711471Y-75969607D01*
X138486565Y-76133010D01*
X138486564Y-76133011D01*
X139417262Y-77063709D01*
X139283398Y-77160967D01*
X139160967Y-77283398D01*
X139063709Y-77417262D01*
X138135311Y-76488864D01*
X138054520Y-76586525D01*
X138054518Y-76586528D01*
X137892707Y-76841502D01*
X137892704Y-76841508D01*
X137764127Y-77114747D01*
X137764125Y-77114752D01*
X137670805Y-77401959D01*
X137614216Y-77698609D01*
X137614215Y-77698616D01*
X137595255Y-77999994D01*
X137595255Y-78000005D01*
X137025585Y-78000005D01*
X137025670Y-77996756D01*
X137041455Y-77695566D01*
X137042812Y-77682659D01*
X137043832Y-77676217D01*
X137089485Y-77387973D01*
X137092175Y-77375312D01*
X137169403Y-77087092D01*
X137173404Y-77074777D01*
X137280336Y-76796211D01*
X137285600Y-76784389D01*
X137421069Y-76518514D01*
X137427530Y-76507324D01*
X137590050Y-76257066D01*
X137597659Y-76246594D01*
X137785437Y-76014707D01*
X137794104Y-76005082D01*
X138005082Y-75794104D01*
X138014707Y-75785437D01*
X138246594Y-75597659D01*
X138257066Y-75590050D01*
X138507324Y-75427530D01*
X138518514Y-75421069D01*
X138784389Y-75285600D01*
X138796211Y-75280336D01*
X139074777Y-75173404D01*
X139087092Y-75169403D01*
X139375312Y-75092175D01*
X139387973Y-75089485D01*
X139682659Y-75042812D01*
X139695564Y-75041455D01*
X139996756Y-75025669D01*
X140003246Y-75025500D01*
X140008285Y-75025500D01*
X178991715Y-75025500D01*
X178996754Y-75025500D01*
X179003244Y-75025670D01*
G37*
%TD.AperFunction*%
M02*
